<svg xmlns="http://www.w3.org/2000/svg" xmlns:xlink="http://www.w3.org/1999/xlink" version="1.1" x="0px" y="0px" viewBox="0 0 24 30" style="enable-background:new 0 0 24 24;" xml:space="preserve"><g><path d="M12,0C5.373,0,0,5.373,0,12s5.373,12,12,12s12-5.373,12-12S18.627,0,12,0z M12,23C5.935,23,1,18.065,1,12S5.935,1,12,1   c6.064,0,11,4.935,11,11S18.064,23,12,23z"/><path d="M8,14.607c-0.262-0.089-0.558-0.128-0.881-0.092c-1.102,0.121-2.05,1-2.115,1.958c-0.067,0.958,0.773,1.634,1.875,1.513   c1.103-0.123,2.051-1,2.117-1.957c0-0.011-0.002-0.02-0.002-0.029H9V8.889l7-0.777v5.496c-0.262-0.089-0.558-0.128-0.881-0.092   c-1.102,0.121-2.05,1-2.115,1.958c-0.067,0.958,0.773,1.634,1.875,1.513c1.103-0.123,2.051-1,2.117-1.957   c0-0.011-0.002-0.019-0.002-0.029H17V6L8,7V14.607z"/></g><text x="0" y="39" fill="#000000" font-size="5px" font-weight="bold" font-family="'Helvetica Neue', Helvetica, Arial-Unicode, Arial, Sans-serif">Created by Hea Poh Lin</text><text x="0" y="44" fill="#000000" font-size="5px" font-weight="bold" font-family="'Helvetica Neue', Helvetica, Arial-Unicode, Arial, Sans-serif">from the Noun Project</text></svg>