<svg xmlns="http://www.w3.org/2000/svg" xmlns:xlink="http://www.w3.org/1999/xlink" version="1.1" x="0px" y="0px" viewBox="0 0 26.435 33.043749999999996" style="enable-background:new 0 0 26.435 26.435;" xml:space="preserve"><g><path d="M16.45,18.316c-1.077,0.332-2.149-0.055-2.398-0.861c-0.13-0.422-0.004-0.874,0.296-1.258L10,11.85c0,2.391,0,5.79,0,6.426   c0,1-0.483,1.713-1.55,2.041c-1.077,0.332-2.149-0.055-2.398-0.861c-0.248-0.807,0.423-1.73,1.499-2.06   C8.065,17.236,8.576,17.246,9,17.383V10.85L3.135,4.983C1.185,7.257,0,10.206,0,13.436c0,7.18,5.82,13,13,13   c3.229,0,6.178-1.185,8.451-3.134l-4.99-4.99C16.457,18.313,16.455,18.315,16.45,18.316z"/><path d="M26,13.436c0-7.18-5.82-13-13-13c-3.23,0-6.178,1.185-8.451,3.134L0.978,0L0.271,0.707l25.457,25.457l0.707-0.707   l-3.57-3.569C24.814,19.614,26,16.665,26,13.436z M18,6.602c0,0,0,9.09,0,9.674c0,0.237-0.031,0.455-0.088,0.659l-1.652-1.652   c0.264-0.006,0.515,0.027,0.74,0.101V8.816l-6.098,1.107L9.184,8.205L18,6.602z"/></g><text x="0" y="41.435" fill="#000000" font-size="5px" font-weight="bold" font-family="'Helvetica Neue', Helvetica, Arial-Unicode, Arial, Sans-serif">Created by Hea Poh Lin</text><text x="0" y="46.435" fill="#000000" font-size="5px" font-weight="bold" font-family="'Helvetica Neue', Helvetica, Arial-Unicode, Arial, Sans-serif">from the Noun Project</text></svg>